# xmcd
#
# Track frame offsets:
#	150
#	45841
#	99811
#	154701
#	207495
#	250545
#
# Disc length: 3914 seconds
# Revision: 0
# Processed by: cddbd v1.5.2PL0 Copyright (c) Steve Scherf et al.
# Submitted via: dBpowerAMP V12.0
#
DISCID=3a0f4806
DTITLE=Larry Crane - The Goals and Resistance Course Week 2 CD 01
DYEAR=1998
DGENRE=Speech
TTITLE0=The Goals and Resistance Course Week 2 pt 1
TTITLE1=The Goals and Resistance Course Week 2 pt 2
TTITLE2=The Goals and Resistance Course Week 2 pt 3
TTITLE3=The Goals and Resistance Course Week 2 pt 4
TTITLE4=The Goals and Resistance Course Week 2 pt 5
TTITLE5=The Goals and Resistance Course Week 2 pt 6
EXTD=
EXTT0=
EXTT1=
EXTT2=
EXTT3=
EXTT4=
EXTT5=
PLAYORDER=
